<?xml version="1.0" standalone="no"?>
<!DOCTYPE svg PUBLIC "-//W3C//DTD SVG 20010904//EN"
 "http://www.w3.org/TR/2001/REC-SVG-20010904/DTD/svg10.dtd">
<svg version="1.0" xmlns="http://www.w3.org/2000/svg"
 width="432.000000pt" height="432.000000pt" viewBox="0 0 432.000000 432.000000"
 preserveAspectRatio="xMidYMid meet">

<g transform="translate(0.000000,432.000000) scale(0.100000,-0.100000)"
fill="#000000" stroke="none">
<path d="M0 2160 l0 -2160 2160 0 2160 0 0 2160 0 2160 -2160 0 -2160 0 0
-2160z m2081 1023 c0 -10 0 -57 -1 -104 -5 -353 176 -649 485 -795 45 -22 62
-25 83 -18 40 14 107 119 128 203 17 65 21 71 44 71 22 0 41 -19 107 -107 168
-223 237 -355 313 -599 33 -103 -13 -289 -106 -431 -83 -126 -239 -254 -402
-329 -80 -37 -255 -93 -377 -121 -119 -27 -358 -25 -485 5 -292 68 -491 165
-644 311 -173 165 -266 410 -217 571 68 229 145 373 327 615 129 172 218 271
481 533 163 162 219 212 238 212 17 0 25 -6 26 -17z"/>
</g>
</svg>
