<?xml version="1.0" encoding="UTF-8"?>
<!DOCTYPE svg PUBLIC "-//W3C//DTD SVG 1.1//EN" "http://www.w3.org/Graphics/SVG/1.1/DTD/svg11.dtd">
<svg xmlns="http://www.w3.org/2000/svg" version="1.1" width="432px" height="432px" style="shape-rendering:geometricPrecision; text-rendering:geometricPrecision; image-rendering:optimizeQuality; fill-rule:evenodd; clip-rule:evenodd" xmlns:xlink="http://www.w3.org/1999/xlink">
<g><path style="opacity:1" fill="#c600fe" d="M -0.5,-0.5 C 143.5,-0.5 287.5,-0.5 431.5,-0.5C 431.5,143.5 431.5,287.5 431.5,431.5C 287.5,431.5 143.5,431.5 -0.5,431.5C -0.5,287.5 -0.5,143.5 -0.5,-0.5 Z"/></g>
<g><path style="opacity:1" fill="#fe7e03" d="M 202.5,111.5 C 203.833,111.5 205.167,111.5 206.5,111.5C 206.334,120.839 206.5,130.173 207,139.5C 207.374,141.491 208.207,143.158 209.5,144.5C 210.313,146.261 211.313,147.928 212.5,149.5C 212.756,152.598 213.422,155.598 214.5,158.5C 215.673,162.179 217.339,165.512 219.5,168.5C 220.169,171.849 221.836,174.516 224.5,176.5C 226.105,181.104 229.105,184.438 233.5,186.5C 237.091,190.299 241.091,193.633 245.5,196.5C 248.478,200.331 252.478,202.665 257.5,203.5C 259.738,204.537 262.071,204.703 264.5,204C 270.463,198.694 274.63,192.194 277,184.5C 277.497,182.19 277.663,179.857 277.5,177.5C 279.924,177.192 282.257,177.526 284.5,178.5C 286.186,179.857 287.852,181.19 289.5,182.5C 289.334,187.992 291.667,191.992 296.5,194.5C 299.835,200.503 303.668,206.169 308,211.5C 309.723,217.716 312.89,223.049 317.5,227.5C 317.672,231.534 318.172,235.534 319,239.5C 320.359,240.365 321.526,241.365 322.5,242.5C 323.167,242.833 323.833,243.167 324.5,243.5C 324.976,254.299 324.309,264.966 322.5,275.5C 320.755,277.033 319.755,279.033 319.5,281.5C 318.833,283.167 318.167,284.833 317.5,286.5C 314.395,289.275 312.062,292.608 310.5,296.5C 303.407,303.6 296.074,310.267 288.5,316.5C 283.68,319.818 278.68,322.818 273.5,325.5C 271.102,325.259 269.102,325.926 267.5,327.5C 262.085,328.194 257.085,329.86 252.5,332.5C 247.202,333.685 241.869,334.685 236.5,335.5C 234.801,335.66 233.134,335.494 231.5,335C 232.094,334.536 232.761,334.369 233.5,334.5C 236.846,333.997 240.179,333.33 243.5,332.5C 250.001,328.265 257.001,324.765 264.5,322C 271.749,315.628 277.082,308.128 280.5,299.5C 282.868,295.611 283.868,291.278 283.5,286.5C 283.422,279.95 281.756,273.95 278.5,268.5C 272.915,260.337 268.082,251.671 264,242.5C 256.407,234.972 249.241,227.306 242.5,219.5C 238.328,213.162 232.995,207.995 226.5,204C 223.189,197.226 218.689,196.059 213,200.5C 212.887,208.608 212.054,216.608 210.5,224.5C 210.5,224.833 210.5,225.167 210.5,225.5C 209.206,226.29 208.039,227.29 207,228.5C 201.605,238.897 193.772,247.064 183.5,253C 177.941,253.782 175.108,251.282 175,245.5C 173.872,242.793 172.372,240.293 170.5,238C 168.5,237.333 166.5,237.333 164.5,238C 161.315,240.884 158.482,244.051 156,247.5C 153.546,253.963 150.212,259.963 146,265.5C 141.807,275.726 140.474,286.393 142,297.5C 144.163,303.164 147.329,308.164 151.5,312.5C 154.252,318.058 158.252,322.558 163.5,326C 167.436,326.972 171.103,328.472 174.5,330.5C 176.5,331.833 178.5,333.167 180.5,334.5C 179.167,334.5 177.833,334.5 176.5,334.5C 174.898,332.926 172.898,332.259 170.5,332.5C 164.71,329.903 158.71,327.903 152.5,326.5C 150.5,325.167 148.5,323.833 146.5,322.5C 143.705,319.769 140.372,318.102 136.5,317.5C 136.027,316.094 135.027,315.427 133.5,315.5C 132.415,313.413 130.749,312.08 128.5,311.5C 127.833,311.167 127.167,310.833 126.5,310.5C 121.139,304.807 115.805,299.14 110.5,293.5C 109.173,290.529 107.84,287.529 106.5,284.5C 105.578,280.888 104.911,277.221 104.5,273.5C 103.5,273.5 102.5,273.5 101.5,273.5C 101.737,272.209 101.404,271.209 100.5,270.5C 99.9914,266.359 99.6581,262.192 99.5,258C 99.4456,252.638 100.112,247.471 101.5,242.5C 103.582,238.447 104.915,234.114 105.5,229.5C 108.28,224.831 110.28,219.831 111.5,214.5C 112.167,213.833 112.833,213.167 113.5,212.5C 116.677,210.316 118.677,207.316 119.5,203.5C 119.5,203.167 119.5,202.833 119.5,202.5C 121.984,200.2 123.984,197.533 125.5,194.5C 130.241,189.099 134.574,183.433 138.5,177.5C 142.877,173.732 146.544,169.399 149.5,164.5C 153.898,161.105 157.564,157.105 160.5,152.5C 168.86,144.806 176.86,136.806 184.5,128.5C 190.463,124.205 195.796,119.205 200.5,113.5C 200.833,112.5 201.5,111.833 202.5,111.5 Z"/></g>
<g><path style="opacity:1" fill="#da2ca7" d="M 202.5,110.5 C 202.5,110.833 202.5,111.167 202.5,111.5C 201.5,111.833 200.833,112.5 200.5,113.5C 195.519,117.476 190.519,121.476 185.5,125.5C 190.199,119.471 195.866,114.471 202.5,110.5 Z"/></g>
<g><path style="opacity:1" fill="#f56a2c" d="M 202.5,111.5 C 202.5,111.167 202.5,110.833 202.5,110.5C 204.167,110.5 205.833,110.5 207.5,110.5C 208.112,119.297 208.779,127.964 209.5,136.5C 209.5,139.167 209.5,141.833 209.5,144.5C 208.207,143.158 207.374,141.491 207,139.5C 206.5,130.173 206.334,120.839 206.5,111.5C 205.167,111.5 203.833,111.5 202.5,111.5 Z"/></g>
<g><path style="opacity:1" fill="#ef5c46" d="M 200.5,113.5 C 195.796,119.205 190.463,124.205 184.5,128.5C 184.557,127.391 184.89,126.391 185.5,125.5C 190.519,121.476 195.519,117.476 200.5,113.5 Z"/></g>
<g><path style="opacity:1" fill="#e34277" d="M 207.5,110.5 C 208.5,110.833 209.167,111.5 209.5,112.5C 209.5,120.5 209.5,128.5 209.5,136.5C 208.779,127.964 208.112,119.297 207.5,110.5 Z"/></g>
<g><path style="opacity:1" fill="#d727ae" d="M 209.5,112.5 C 210.395,122.667 211.061,133 211.5,143.5C 210.833,141.167 210.167,138.833 209.5,136.5C 209.5,128.5 209.5,120.5 209.5,112.5 Z"/></g>
<g><path style="opacity:1" fill="#e84c67" d="M 185.5,125.5 C 184.89,126.391 184.557,127.391 184.5,128.5C 176.86,136.806 168.86,144.806 160.5,152.5C 160.557,151.391 160.89,150.391 161.5,149.5C 166.833,144.833 171.833,139.833 176.5,134.5C 179.116,131.063 182.116,128.063 185.5,125.5 Z"/></g>
<g><path style="opacity:1" fill="#d522bb" d="M 176.5,134.5 C 171.833,139.833 166.833,144.833 161.5,149.5C 165.5,143.5 170.5,138.5 176.5,134.5 Z"/></g>
<g><path style="opacity:1" fill="#e54476" d="M 209.5,136.5 C 210.167,138.833 210.833,141.167 211.5,143.5C 212.15,145.435 212.483,147.435 212.5,149.5C 211.313,147.928 210.313,146.261 209.5,144.5C 209.5,141.833 209.5,139.167 209.5,136.5 Z"/></g>
<g><path style="opacity:1" fill="#d829ad" d="M 161.5,149.5 C 160.89,150.391 160.557,151.391 160.5,152.5C 159.5,153.167 158.5,153.833 157.5,154.5C 158.136,152.205 159.469,150.539 161.5,149.5 Z"/></g>
<g><path style="opacity:1" fill="#e94f5f" d="M 160.5,152.5 C 157.564,157.105 153.898,161.105 149.5,164.5C 150.075,162.589 151.075,160.922 152.5,159.5C 154.5,158.167 156.167,156.5 157.5,154.5C 158.5,153.833 159.5,153.167 160.5,152.5 Z"/></g>
<g><path style="opacity:1" fill="#de3597" d="M 214.5,158.5 C 217.865,160.867 219.532,164.2 219.5,168.5C 217.339,165.512 215.673,162.179 214.5,158.5 Z"/></g>
<g><path style="opacity:1" fill="#d523b9" d="M 152.5,159.5 C 151.075,160.922 150.075,162.589 149.5,164.5C 147.833,165.833 146.167,167.167 144.5,168.5C 145.75,166.068 147.25,163.734 149,161.5C 149.816,160.177 150.983,159.511 152.5,159.5 Z"/></g>
<g><path style="opacity:1" fill="#e94f60" d="M 149.5,164.5 C 146.544,169.399 142.877,173.732 138.5,177.5C 140.474,174.518 142.474,171.518 144.5,168.5C 146.167,167.167 147.833,165.833 149.5,164.5 Z"/></g>
<g><path style="opacity:1" fill="#e23e83" d="M 219.5,168.5 C 220.376,168.369 221.043,168.702 221.5,169.5C 222.32,171.974 223.32,174.307 224.5,176.5C 221.836,174.516 220.169,171.849 219.5,168.5 Z"/></g>
<g><path style="opacity:1" fill="#d31ec3" d="M 144.5,168.5 C 142.474,171.518 140.474,174.518 138.5,177.5C 137.5,178.167 136.5,178.833 135.5,179.5C 137.426,174.912 140.426,171.245 144.5,168.5 Z"/></g>
<g><path style="opacity:1" fill="#e84c67" d="M 224.5,176.5 C 227.436,179.775 230.436,183.109 233.5,186.5C 229.105,184.438 226.105,181.104 224.5,176.5 Z"/></g>
<g><path style="opacity:1" fill="#e54476" d="M 138.5,177.5 C 134.574,183.433 130.241,189.099 125.5,194.5C 126.738,191.262 128.404,188.262 130.5,185.5C 132.643,183.869 134.31,181.869 135.5,179.5C 136.5,178.833 137.5,178.167 138.5,177.5 Z"/></g>
<g><path style="opacity:1" fill="#de3499" d="M 288.5,179.5 C 289.11,180.391 289.443,181.391 289.5,182.5C 287.852,181.19 286.186,179.857 284.5,178.5C 282.257,177.526 279.924,177.192 277.5,177.5C 277.663,179.857 277.497,182.19 277,184.5C 274.63,192.194 270.463,198.694 264.5,204C 262.071,204.703 259.738,204.537 257.5,203.5C 257.5,203.167 257.5,202.833 257.5,202.5C 259.857,202.663 262.19,202.497 264.5,202C 265.781,199.597 267.614,197.763 270,196.5C 272.96,190.261 275.127,183.761 276.5,177C 281.145,174.696 285.145,175.529 288.5,179.5 Z"/></g>
<g><path style="opacity:1" fill="#d119d0" d="M 288.5,179.5 C 293.847,183.163 297.513,188.163 299.5,194.5C 295.689,190.867 292.356,186.867 289.5,182.5C 289.443,181.391 289.11,180.391 288.5,179.5 Z"/></g>
<g><path style="opacity:1" fill="#d725b9" d="M 233.5,186.5 C 234.873,186.343 236.207,186.51 237.5,187C 242.072,190.75 246.406,194.583 250.5,198.5C 248.716,198.107 247.05,197.441 245.5,196.5C 241.091,193.633 237.091,190.299 233.5,186.5 Z"/></g>
<g><path style="opacity:1" fill="#ef5b4e" d="M 289.5,182.5 C 292.356,186.867 295.689,190.867 299.5,194.5C 299.5,194.833 299.5,195.167 299.5,195.5C 303.025,201.23 307.025,206.563 311.5,211.5C 311.5,212.167 311.5,212.833 311.5,213.5C 313.075,218.389 315.075,223.056 317.5,227.5C 312.89,223.049 309.723,217.716 308,211.5C 303.668,206.169 299.835,200.503 296.5,194.5C 291.667,191.992 289.334,187.992 289.5,182.5 Z"/></g>
<g><path style="opacity:1" fill="#d21bc8" d="M 130.5,185.5 C 128.404,188.262 126.738,191.262 125.5,194.5C 122.529,196.443 120.529,199.109 119.5,202.5C 119.5,202.833 119.5,203.167 119.5,203.5C 118.272,204.306 117.272,205.306 116.5,206.5C 117.049,204.099 117.882,201.765 119,199.5C 122.411,194.278 126.244,189.611 130.5,185.5 Z"/></g>
<g><path style="opacity:1" fill="#f05e46" d="M 245.5,196.5 C 247.05,197.441 248.716,198.107 250.5,198.5C 252.635,200.071 254.968,201.404 257.5,202.5C 257.5,202.833 257.5,203.167 257.5,203.5C 252.478,202.665 248.478,200.331 245.5,196.5 Z"/></g>
<g><path style="opacity:1" fill="#e44279" d="M 125.5,194.5 C 123.984,197.533 121.984,200.2 119.5,202.5C 120.529,199.109 122.529,196.443 125.5,194.5 Z"/></g>
<g><path style="opacity:1" fill="#ffae00" d="M 242.5,219.5 C 235.816,214.089 229.149,208.589 222.5,203C 221.663,201.989 221.33,200.822 221.5,199.5C 218.635,199.055 216.135,199.722 214,201.5C 213.667,207.167 213.333,212.833 213,218.5C 212.76,220.852 211.927,222.852 210.5,224.5C 212.054,216.608 212.887,208.608 213,200.5C 218.689,196.059 223.189,197.226 226.5,204C 232.995,207.995 238.328,213.162 242.5,219.5 Z"/></g>
<g><path style="opacity:1" fill="#ffd805" d="M 242.5,219.5 C 249.241,227.306 256.407,234.972 264,242.5C 268.082,251.671 272.915,260.337 278.5,268.5C 281.393,278.667 282.059,289 280.5,299.5C 277.082,308.128 271.749,315.628 264.5,322C 257.001,324.765 250.001,328.265 243.5,332.5C 240.179,333.33 236.846,333.997 233.5,334.5C 236.06,331.78 239.06,329.614 242.5,328C 245.099,325.264 247.432,322.431 249.5,319.5C 253.938,310.892 252.938,302.892 246.5,295.5C 244.195,291.362 241.029,288.028 237,285.5C 234.476,286.178 232.309,287.512 230.5,289.5C 228.604,290.466 226.604,290.799 224.5,290.5C 223.833,289.5 223.167,288.5 222.5,287.5C 217.517,281.304 214.017,274.304 212,266.5C 209.159,264.496 205.993,263.996 202.5,265C 200.262,267.743 197.595,269.909 194.5,271.5C 189.374,275.623 185.374,280.623 182.5,286.5C 180.115,290.837 177.281,294.837 174,298.5C 173.45,302.585 172.617,306.585 171.5,310.5C 171.892,313.849 172.392,317.183 173,320.5C 174.055,323.056 175.888,324.723 178.5,325.5C 178.92,327.094 179.586,328.594 180.5,330C 180.167,330.5 179.833,331 179.5,331.5C 177.929,330.691 176.262,330.357 174.5,330.5C 171.103,328.472 167.436,326.972 163.5,326C 158.252,322.558 154.252,318.058 151.5,312.5C 149.059,307.832 146.559,303.165 144,298.5C 143.582,294.822 143.082,291.155 142.5,287.5C 145.962,269.885 153.629,254.385 165.5,241C 166.793,240.51 168.127,240.343 169.5,240.5C 170.839,250.022 176.172,254.522 185.5,254C 197.985,248.023 206.318,238.523 210.5,225.5C 210.5,225.167 210.5,224.833 210.5,224.5C 211.927,222.852 212.76,220.852 213,218.5C 213.333,212.833 213.667,207.167 214,201.5C 216.135,199.722 218.635,199.055 221.5,199.5C 221.33,200.822 221.663,201.989 222.5,203C 229.149,208.589 235.816,214.089 242.5,219.5 Z"/></g>
<g><path style="opacity:1" fill="#d119ce" d="M 299.5,195.5 C 301.09,195.628 302.423,196.295 303.5,197.5C 306.352,202.05 309.019,206.716 311.5,211.5C 307.025,206.563 303.025,201.23 299.5,195.5 Z"/></g>
<g><path style="opacity:1" fill="#e74870" d="M 119.5,203.5 C 118.677,207.316 116.677,210.316 113.5,212.5C 113.755,210.033 114.755,208.033 116.5,206.5C 117.272,205.306 118.272,204.306 119.5,203.5 Z"/></g>
<g><path style="opacity:1" fill="#d31dc8" d="M 311.5,213.5 C 312.239,213.369 312.906,213.536 313.5,214C 316.759,218.313 318.759,223.146 319.5,228.5C 318.833,228.167 318.167,227.833 317.5,227.5C 315.075,223.056 313.075,218.389 311.5,213.5 Z"/></g>
<g><path style="opacity:1" fill="#e54379" d="M 111.5,214.5 C 110.28,219.831 108.28,224.831 105.5,229.5C 106.232,225.303 107.566,221.303 109.5,217.5C 109.427,215.973 110.094,214.973 111.5,214.5 Z"/></g>
<g><path style="opacity:1" fill="#d018d2" d="M 109.5,217.5 C 107.566,221.303 106.232,225.303 105.5,229.5C 104.143,230.59 103.143,231.924 102.5,233.5C 102.804,230.478 103.304,227.478 104,224.5C 105.887,222.974 106.887,220.974 107,218.5C 107.671,217.748 108.504,217.414 109.5,217.5 Z"/></g>
<g><path style="opacity:1" fill="#d92ba8" d="M 319.5,230.5 C 322.509,234.206 324.176,238.539 324.5,243.5C 323.833,243.167 323.167,242.833 322.5,242.5C 321.512,238.516 320.512,234.516 319.5,230.5 Z"/></g>
<g><path style="opacity:1" fill="#e7496c" d="M 105.5,229.5 C 104.915,234.114 103.582,238.447 101.5,242.5C 100.687,244.261 99.6873,245.928 98.5,247.5C 98.9139,242.502 100.247,237.835 102.5,233.5C 103.143,231.924 104.143,230.59 105.5,229.5 Z"/></g>
<g><path style="opacity:1" fill="#f3643b" d="M 317.5,227.5 C 318.167,227.833 318.833,228.167 319.5,228.5C 319.5,229.167 319.5,229.833 319.5,230.5C 320.512,234.516 321.512,238.516 322.5,242.5C 321.526,241.365 320.359,240.365 319,239.5C 318.172,235.534 317.672,231.534 317.5,227.5 Z"/></g>
<g><path style="opacity:1" fill="#f1603e" d="M 101.5,242.5 C 100.112,247.471 99.4456,252.638 99.5,258C 99.6581,262.192 99.9914,266.359 100.5,270.5C 99.7784,270.082 99.2784,269.416 99,268.5C 98.5004,261.508 98.3337,254.508 98.5,247.5C 99.6873,245.928 100.687,244.261 101.5,242.5 Z"/></g>
<g><path style="opacity:1" fill="#fffefc" d="M 222.5,287.5 C 223.167,288.5 223.833,289.5 224.5,290.5C 225.514,291.765 227.014,292.431 229,292.5C 230.5,292.333 232,292.167 233.5,292C 234.536,288.712 236.536,287.879 239.5,289.5C 241.577,291.076 243.077,293.076 244,295.5C 250.891,311.361 247.058,323.861 232.5,333C 227.749,334.608 223.083,336.108 218.5,337.5C 212.5,337.5 206.5,337.5 200.5,337.5C 200.082,336.778 199.416,336.278 198.5,336C 195.854,335.503 193.187,335.336 190.5,335.5C 186.861,331.873 182.861,328.539 178.5,325.5C 175.249,318.589 174.083,311.256 175,303.5C 176.894,298.608 179.228,293.941 182,289.5C 185.186,287.161 187.352,284.161 188.5,280.5C 193.308,275.707 198.308,270.874 203.5,266C 205.579,265.192 207.579,265.359 209.5,266.5C 210.574,275.673 214.908,282.673 222.5,287.5 Z"/></g>
<g><path style="opacity:1" fill="#e3417b" d="M 322.5,275.5 C 322.245,277.967 321.245,279.967 319.5,281.5C 319.755,279.033 320.755,277.033 322.5,275.5 Z"/></g>
<g><path style="opacity:1" fill="#f2633f" d="M 100.5,270.5 C 101.404,271.209 101.737,272.209 101.5,273.5C 102.5,273.5 103.5,273.5 104.5,273.5C 104.911,277.221 105.578,280.888 106.5,284.5C 105.833,284.167 105.167,283.833 104.5,283.5C 103.157,280.457 101.823,277.457 100.5,274.5C 100.5,273.167 100.5,271.833 100.5,270.5 Z"/></g>
<g><path style="opacity:1" fill="#ffb100" d="M 278.5,268.5 C 281.756,273.95 283.422,279.95 283.5,286.5C 283.868,291.278 282.868,295.611 280.5,299.5C 282.059,289 281.393,278.667 278.5,268.5 Z"/></g>
<g><path style="opacity:1" fill="#d31ccb" d="M 324.5,243.5 C 325.874,255.37 325.707,267.37 324,279.5C 322.781,283.248 320.615,286.248 317.5,288.5C 317.5,287.833 317.5,287.167 317.5,286.5C 318.167,284.833 318.833,283.167 319.5,281.5C 321.245,279.967 322.245,277.967 322.5,275.5C 324.309,264.966 324.976,254.299 324.5,243.5 Z"/></g>
<g><path style="opacity:1" fill="#d41fc1" d="M 100.5,274.5 C 101.823,277.457 103.157,280.457 104.5,283.5C 104.5,284.167 104.5,284.833 104.5,285.5C 101.344,282.617 100.01,278.951 100.5,274.5 Z"/></g>
<g><path style="opacity:1" fill="#ffe680" d="M 222.5,287.5 C 214.908,282.673 210.574,275.673 209.5,266.5C 207.579,265.359 205.579,265.192 203.5,266C 198.308,270.874 193.308,275.707 188.5,280.5C 186.861,282.806 184.861,284.806 182.5,286.5C 185.374,280.623 189.374,275.623 194.5,271.5C 197.595,269.909 200.262,267.743 202.5,265C 205.993,263.996 209.159,264.496 212,266.5C 214.017,274.304 217.517,281.304 222.5,287.5 Z"/></g>
<g><path style="opacity:1" fill="#ffbe00" d="M 210.5,225.5 C 206.318,238.523 197.985,248.023 185.5,254C 176.172,254.522 170.839,250.022 169.5,240.5C 168.127,240.343 166.793,240.51 165.5,241C 153.629,254.385 145.962,269.885 142.5,287.5C 143.082,291.155 143.582,294.822 144,298.5C 146.559,303.165 149.059,307.832 151.5,312.5C 147.329,308.164 144.163,303.164 142,297.5C 140.474,286.393 141.807,275.726 146,265.5C 150.212,259.963 153.546,253.963 156,247.5C 158.482,244.051 161.315,240.884 164.5,238C 166.5,237.333 168.5,237.333 170.5,238C 172.372,240.293 173.872,242.793 175,245.5C 175.108,251.282 177.941,253.782 183.5,253C 193.772,247.064 201.605,238.897 207,228.5C 208.039,227.29 209.206,226.29 210.5,225.5 Z"/></g>
<g><path style="opacity:1" fill="#e44378" d="M 317.5,286.5 C 317.5,287.167 317.5,287.833 317.5,288.5C 315.167,291.167 312.833,293.833 310.5,296.5C 312.062,292.608 314.395,289.275 317.5,286.5 Z"/></g>
<g><path style="opacity:1" fill="#e0388e" d="M 104.5,283.5 C 105.167,283.833 105.833,284.167 106.5,284.5C 107.84,287.529 109.173,290.529 110.5,293.5C 108.016,291.2 106.016,288.533 104.5,285.5C 104.5,284.833 104.5,284.167 104.5,283.5 Z"/></g>
<g><path style="opacity:1" fill="#ffeb9d" d="M 188.5,280.5 C 187.352,284.161 185.186,287.161 182,289.5C 179.228,293.941 176.894,298.608 175,303.5C 174.083,311.256 175.249,318.589 178.5,325.5C 175.888,324.723 174.055,323.056 173,320.5C 172.392,317.183 171.892,313.849 171.5,310.5C 172.617,306.585 173.45,302.585 174,298.5C 177.281,294.837 180.115,290.837 182.5,286.5C 184.861,284.806 186.861,282.806 188.5,280.5 Z"/></g>
<g><path style="opacity:1" fill="#de3499" d="M 110.5,293.5 C 115.805,299.14 121.139,304.807 126.5,310.5C 121.226,306.401 116.059,302.067 111,297.5C 110.51,296.207 110.343,294.873 110.5,293.5 Z"/></g>
<g><path style="opacity:1" fill="#e64672" d="M 310.5,296.5 C 309.89,297.391 309.557,298.391 309.5,299.5C 304.702,303.797 300.035,308.297 295.5,313C 293.14,314.18 290.807,315.347 288.5,316.5C 296.074,310.267 303.407,303.6 310.5,296.5 Z"/></g>
<g><path style="opacity:1" fill="#fef0d3" d="M 246.5,295.5 C 248.625,300.364 249.958,305.53 250.5,311C 249.784,313.792 249.451,316.626 249.5,319.5C 247.432,322.431 245.099,325.264 242.5,328C 239.06,329.614 236.06,331.78 233.5,334.5C 232.761,334.369 232.094,334.536 231.5,335C 233.134,335.494 234.801,335.66 236.5,335.5C 230.726,336.946 224.726,337.612 218.5,337.5C 223.083,336.108 227.749,334.608 232.5,333C 247.058,323.861 250.891,311.361 244,295.5C 243.077,293.076 241.577,291.076 239.5,289.5C 236.536,287.879 234.536,288.712 233.5,292C 232,292.167 230.5,292.333 229,292.5C 227.014,292.431 225.514,291.765 224.5,290.5C 226.604,290.799 228.604,290.466 230.5,289.5C 232.309,287.512 234.476,286.178 237,285.5C 241.029,288.028 244.195,291.362 246.5,295.5 Z"/></g>
<g><path style="opacity:1" fill="#e44378" d="M 128.5,311.5 C 130.749,312.08 132.415,313.413 133.5,315.5C 131.251,314.92 129.585,313.587 128.5,311.5 Z"/></g>
<g><path style="opacity:1" fill="#ffe782" d="M 246.5,295.5 C 252.938,302.892 253.938,310.892 249.5,319.5C 249.451,316.626 249.784,313.792 250.5,311C 249.958,305.53 248.625,300.364 246.5,295.5 Z"/></g>
<g><path style="opacity:1" fill="#eb535b" d="M 136.5,317.5 C 140.372,318.102 143.705,319.769 146.5,322.5C 144.142,322.747 142.142,322.081 140.5,320.5C 138.77,319.974 137.436,318.974 136.5,317.5 Z"/></g>
<g><path style="opacity:1" fill="#d420c1" d="M 140.5,320.5 C 142.142,322.081 144.142,322.747 146.5,322.5C 148.5,323.833 150.5,325.167 152.5,326.5C 148.66,325.915 144.993,324.749 141.5,323C 140.748,322.329 140.414,321.496 140.5,320.5 Z"/></g>
<g><path style="opacity:1" fill="#d21ccb" d="M 309.5,299.5 C 305.07,305.434 300.07,310.934 294.5,316C 288.761,318.853 283.094,321.853 277.5,325C 276.207,325.49 274.873,325.657 273.5,325.5C 278.68,322.818 283.68,319.818 288.5,316.5C 290.807,315.347 293.14,314.18 295.5,313C 300.035,308.297 304.702,303.797 309.5,299.5 Z"/></g>
<g><path style="opacity:1" fill="#d31ec6" d="M 273.5,325.5 C 268.49,329.177 262.823,331.51 256.5,332.5C 260.083,330.64 263.749,328.973 267.5,327.5C 269.102,325.926 271.102,325.259 273.5,325.5 Z"/></g>
<g><path style="opacity:1" fill="#fdc844" d="M 178.5,325.5 C 182.861,328.539 186.861,331.873 190.5,335.5C 188.5,335.5 186.5,335.5 184.5,335.5C 183.167,335.167 181.833,334.833 180.5,334.5C 178.5,333.167 176.5,331.833 174.5,330.5C 176.262,330.357 177.929,330.691 179.5,331.5C 179.833,331 180.167,330.5 180.5,330C 179.586,328.594 178.92,327.094 178.5,325.5 Z"/></g>
<g><path style="opacity:1" fill="#e3407e" d="M 267.5,327.5 C 263.749,328.973 260.083,330.64 256.5,332.5C 255.167,332.5 253.833,332.5 252.5,332.5C 257.085,329.86 262.085,328.194 267.5,327.5 Z"/></g>
<g><path style="opacity:1" fill="#e0398b" d="M 170.5,332.5 C 172.898,332.259 174.898,332.926 176.5,334.5C 174.102,334.741 172.102,334.074 170.5,332.5 Z"/></g>
<g><path style="opacity:1" fill="#d21ad0" d="M 152.5,326.5 C 158.71,327.903 164.71,329.903 170.5,332.5C 172.102,334.074 174.102,334.741 176.5,334.5C 177.833,334.5 179.167,334.5 180.5,334.5C 181.833,334.833 183.167,335.167 184.5,335.5C 185.833,336.167 187.167,336.833 188.5,337.5C 178.923,336.64 169.589,334.806 160.5,332C 157.285,330.898 154.618,329.065 152.5,326.5 Z"/></g>
<g><path style="opacity:1" fill="#ef969d" d="M 184.5,335.5 C 186.5,335.5 188.5,335.5 190.5,335.5C 193.187,335.336 195.854,335.503 198.5,336C 199.416,336.278 200.082,336.778 200.5,337.5C 196.5,337.5 192.5,337.5 188.5,337.5C 187.167,336.833 185.833,336.167 184.5,335.5 Z"/></g>
<g><path style="opacity:1" fill="#dd57d7" d="M 252.5,332.5 C 253.833,332.5 255.167,332.5 256.5,332.5C 254.723,333.6 252.723,334.434 250.5,335C 229.789,338.491 209.123,339.324 188.5,337.5C 192.5,337.5 196.5,337.5 200.5,337.5C 206.5,337.5 212.5,337.5 218.5,337.5C 224.726,337.612 230.726,336.946 236.5,335.5C 241.869,334.685 247.202,333.685 252.5,332.5 Z"/></g>
</svg>
