<svg xmlns="http://www.w3.org/2000/svg" viewBox="0 0 48 64"><defs><style>.cls-1{fill:#ff7f00;}.cls-2{fill:#ffda00;}.cls-3{fill:#fff;}</style></defs><title>Fire</title><g id="Layer_2" data-name="Layer 2"><g id="Layer_1-2" data-name="Layer 1"><path class="cls-1" d="M48,41.22C48,53.8,37.25,64,24,64S0,53.8,0,41.22C0,27.79,15.78,7.54,21.75.37A1,1,0,0,1,23.56,1c-.51,6-.16,18.84,10.58,25.24A1,1,0,0,0,35.51,26a13.14,13.14,0,0,0,2.25-6.69,1,1,0,0,1,1.89-.4C44.22,26.43,48,34.64,48,41.22Z"/><path class="cls-2" d="M9,49.76C9,57.63,15.72,64,24,64s15-6.37,15-14.24S30.31,30.25,26.16,25.15a1,1,0,0,0-1.82.63c.15,4-.55,10.77-6.35,14.45a1,1,0,0,1-1.41-.32,8.06,8.06,0,0,1-1-2.8,1,1,0,0,0-1.9-.32C11.05,41.22,9,45.93,9,49.76Z"/><path class="cls-3" d="M32.25,56.17A8,8,0,0,1,24,64a8,8,0,0,1-8.25-7.83c0-3.87,3.8-9.37,6.25-12.51a1,1,0,0,1,1.82.53,8.34,8.34,0,0,0,3,6.38,1,1,0,0,0,1.59-.41l0,0A1,1,0,0,1,30.25,50,14.07,14.07,0,0,1,32.25,56.17Z"/></g></g></svg>